<svg id="Layer_1" data-name="Layer 1" xmlns="http://www.w3.org/2000/svg" viewBox="0 0 183 51"><defs><style>.cls-1{fill:#ea002a;}</style></defs><title>Make_logo_</title><path class="cls-1" d="M0,.36H14.24l10.93,36h.13L35.5.36H50.07v49H39.67V15.92h-.13a88.14,88.14,0,0,1-2.72,10.93L29.47,49.37H19.93L12.65,26.85A86.71,86.71,0,0,1,9.8,15.39H9.67v34H0Z"/><path class="cls-1" d="M52.84,40.36c0-8.15,6.89-12.65,22.38-13.91v-.86c0-2.58-1.32-4.24-4.77-4.24a18.79,18.79,0,0,0-11.59,4.37l-4.5-6.09c3.51-3.18,8.81-6.29,17.62-6.29,9.67,0,13.64,4.77,13.64,13.84V40.76c0,4.24.26,6.82,1,8.61H76a17,17,0,0,1-.8-5.17A15.6,15.6,0,0,1,62.91,49.9C57.48,49.9,52.84,46.39,52.84,40.36Zm22.38-1.52V32.28c-8.41.86-12,3-12,6.23,0,2.25,1.59,3.38,3.91,3.38A10.91,10.91,0,0,0,75.23,38.84Z"/><path class="cls-1" d="M89.4.36h10.66V27.25l11-13.18h11.46L111,27.25l12.18,22.12h-11L104.37,35l-4.31,4.83v9.54H89.4Z"/><path class="cls-1" d="M120.39,31.75c0-13.71,10.46-18.41,17.75-18.41S154.36,17,154.36,33V34.6H131c.53,5.83,3.78,8.08,8.21,8.08a16.23,16.23,0,0,0,10.46-4.24l4.11,6.36a22.81,22.81,0,0,1-15.36,5.3C129.19,50.1,120.39,45.39,120.39,31.75Zm24.44-3.45c-.53-5-2.78-7.35-6.75-7.35-3.31,0-6.16,2.18-7,7.35Z"/><path class="cls-1" d="M156.54,14.07H168V24.33H156.54Zm0,25H168V49.37H156.54Z"/></svg>